<?xml version="1.0" encoding="UTF-8"?>
<svg id="Ebene_1" data-name="Ebene 1" xmlns="http://www.w3.org/2000/svg" viewBox="0 0 800 346.21">
  <defs>
    <style>
      .cls-1 {
        fill: #1d1d1b;
      }
    </style>
  </defs>
  <path class="cls-1" d="M318.13,300.3l-.04-203.17h203.71l.04,202.27v.9h-203.71ZM520.94,299.41v-.9.9h0ZM319.92,298.51h200.11l-.04-199.57h-200.11l.04,199.57h0Z"/>
  <path class="cls-1" d="M419.95,300.3c-45.35-.01-71.78-29.91-71.84-29.96h0c-27.64-29.04-30.14-58.86-30.14-68.65h0c0-2.07.12-3.25.12-3.25h0c0-.28,0-.56,0-.85h0c.02-44.56,30.01-70.47,30.04-70.5h0c27.44-27.74,61.32-29.56,69.85-29.57h0c1.14,0,1.84.03,2,.04h0s.09,0,.15,0h0c46.38.01,71.62,29.49,71.64,29.51h0c29.09,27.78,29.96,66.12,29.98,70.88h0c0,.32,0,.48,0,.48h0c-.34,42.39-29.9,71.83-29.94,71.89h0c-27.07,28.68-64.13,29.97-70.81,29.98h0c-.68,0-1.05-.01-1.02-.01h0ZM349.35,128.4s-1.81,1.56-4.57,4.63h0c-2.76,3.07-6.45,7.62-10.14,13.55h0c-7.38,11.85-14.75,29.15-14.75,51.01h0v.93h0s-.12,1.1-.12,3.16h0c0,9.5,2.41,38.8,29.67,67.43h0s1.59,1.81,4.72,4.56h0c3.13,2.76,7.78,6.43,13.81,10.11h0c12.08,7.36,29.71,14.71,52.01,14.71h0s.34.01,1,.01h0c6.48,0,43.04-1.32,69.52-29.44h0s1.8-1.79,4.54-5.17h0c2.74-3.38,6.39-8.32,10.06-14.56h0c7.33-12.48,14.69-30.16,14.84-50.93h0v-.47h0c.01-4.56-.91-42.42-29.48-69.65h0s-1.52-1.78-4.55-4.49h0c-3.03-2.71-7.56-6.34-13.51-9.96h0c-11.9-7.25-29.49-14.5-52.28-14.5h-.15v-.9s-.07.9-.07.9c0,0-.66-.04-1.92-.04h-.02c-8.34,0-41.67,1.83-68.59,29.08h0Z"/>
  <polygon class="cls-1" points="418.15 299.41 418.15 98.47 421.75 98.47 421.75 299.41 418.15 299.41 418.15 299.41"/>
  <path class="cls-1" d="M348.28,270.62l-.42-143.79h144.16l.43,142.89h-.9s0-.9,0-.9v.9h.9s0,.9,0,.9h-144.17ZM350.08,268.82h140.58l-.42-140.2h-140.57l.42,140.2h0Z"/>
  <polygon class="cls-1" points="318.39 298.77 520.26 97.4 521.53 98.67 319.66 300.04 318.39 298.77 318.39 298.77"/>
  <polygon class="cls-1" points="318.35 98.67 319.62 97.4 521.57 298.77 520.3 300.04 318.35 98.67 318.35 98.67"/>
  <path class="cls-1" d="M346.72,299.1l10.26-.21s17.55-3.45,16.14-28.89c0,0-.08-147.18-.12-149.21.53-2.17-1.95-20.1-15.32-21.68l-5.07-.69-10.6-.64h123.27s16.07-.43,18.89-9.59l30.24,74.21,3.19,12.04s-8.67-27.61-27.5-46.97c0,0-15.54-14.26-36.08-14.69l-51.31.13.38,74.14,32.42-.25s20.04.51,21.06-25.02l2.04-1.59-.13,76.93-1.91-1.9s2.64-31.31-26.3-31.08l-27.18.13-.13,70.05s-3.39,24.33,20.87,24.33l11.9.46h-9.81s-79.18-.01-79.18-.01Z"/>
  <g>
    <path class="cls-1" d="M315.41.38h16.85l2.04,5.78-1.37.52c-.58-1.35-1.15-2.32-1.71-2.91-.56-.59-1.21-1.01-1.94-1.26-.74-.25-1.9-.38-3.48-.38h-4.75v8.47h2.16c1.14,0,1.95-.11,2.45-.33.49-.22.87-.57,1.14-1.05.26-.48.39-1.16.39-2.04v-.58h1.55v9.67h-1.55v-.85c0-.83-.13-1.48-.38-1.94-.25-.46-.6-.8-1.03-1-.44-.21-1.21-.31-2.33-.31h-2.4v6.86c0,.63.07,1.07.2,1.32.13.25.33.44.58.57.26.13.72.2,1.38.2h.58v1.33h-8.39v-1.33h.54c.67,0,1.14-.06,1.4-.19.26-.13.45-.32.57-.59.12-.27.18-.75.18-1.46V3.87c0-.66-.06-1.13-.17-1.4-.12-.27-.29-.46-.53-.58-.24-.12-.65-.18-1.24-.18h-.74V.38Z"/>
    <path class="cls-1" d="M356.02.38h11.37c2.16,0,3.79.22,4.9.67,1.11.45,1.96,1.1,2.55,1.94.6.85.89,1.83.89,2.95s-.29,2.17-.87,3.06c-.58.89-1.42,1.59-2.51,2.1-1.09.51-2.54.78-4.35.8l5.83,7.11c.47.59.78.95.93,1.09.37.33.76.57,1.16.74.41.17.86.25,1.37.25h.4v1.33h-5.02l-8.1-10.52h-2.83v6.79c0,.76.03,1.23.08,1.42.12.36.3.61.56.76.26.15.76.22,1.51.22h.57v1.33h-8.43v-1.33h.76c.57,0,.95-.04,1.15-.11s.37-.2.52-.39c.15-.18.26-.42.32-.7.02-.12.04-.65.05-1.6V3.87c0-.64-.06-1.1-.19-1.38-.13-.28-.3-.48-.53-.6-.23-.12-.62-.18-1.18-.18h-.9V.38ZM361.74,2.1v8.29h4.54c1.54,0,2.62-.09,3.24-.28.89-.25,1.58-.72,2.1-1.39.51-.67.77-1.53.77-2.57,0-.88-.18-1.63-.55-2.24-.37-.6-.87-1.06-1.51-1.36-.64-.3-1.59-.45-2.85-.45h-5.73Z"/>
    <path class="cls-1" d="M411.06,0c2.01,0,3.83.48,5.45,1.45,1.76,1.04,3.11,2.4,4.06,4.06.94,1.66,1.41,3.59,1.41,5.78,0,3.39-1.05,6.16-3.16,8.29-2.11,2.14-4.8,3.21-8.06,3.21-3.65,0-6.53-1.28-8.66-3.85-1.74-2.1-2.61-4.6-2.61-7.52,0-2.17.49-4.11,1.47-5.84.98-1.72,2.37-3.08,4.17-4.08,1.8-1,3.78-1.5,5.93-1.5ZM411.05,1.71c-1.65,0-3.06.38-4.24,1.13-1.18.75-2.13,1.86-2.84,3.33-.71,1.46-1.07,3.27-1.07,5.42s.35,3.79,1.05,5.22c.7,1.43,1.64,2.52,2.83,3.28,1.18.76,2.51,1.14,3.99,1.14s2.76-.37,3.89-1.11c1.13-.74,2.06-1.91,2.8-3.51.74-1.6,1.11-3.37,1.11-5.32s-.37-3.79-1.11-5.43c-.63-1.41-1.47-2.45-2.52-3.13-1.05-.67-2.34-1.01-3.89-1.01Z"/>
    <path class="cls-1" d="M445.26.38h6.96l6.51,17.45,6.35-17.45h6.72v1.33h-.57c-.69,0-1.15.06-1.38.18-.24.12-.42.32-.56.61-.14.29-.2.77-.2,1.44v14.53c0,.92.05,1.51.17,1.78.11.27.29.48.55.62.26.14.74.21,1.43.21h.57v1.33h-8.42v-1.33h.6c.54,0,.93-.04,1.18-.13.25-.08.45-.22.62-.42.16-.19.25-.4.28-.61.05-.43.08-.77.08-1.01V2.7l-7.2,19.71h-1.58l-7.24-19.43v15.61c0,.8.07,1.33.21,1.61.14.28.35.5.64.65.29.15.81.23,1.56.23h.51v1.33h-7.76v-1.33h.44c.75,0,1.28-.08,1.6-.24.32-.16.55-.38.69-.67.14-.29.21-.86.21-1.71V4.08c0-.81-.06-1.34-.17-1.6-.12-.26-.31-.45-.58-.58-.27-.13-.75-.19-1.43-.19h-.76V.38Z"/>
    <path class="cls-1" d="M495.08.38h6.96l6.51,17.45,6.35-17.45h6.72v1.33h-.57c-.68,0-1.14.06-1.38.18-.24.12-.42.32-.56.61-.14.29-.21.77-.21,1.44v14.53c0,.92.06,1.51.17,1.78.11.27.29.48.55.62.26.14.73.21,1.43.21h.57v1.33h-8.42v-1.33h.6c.54,0,.93-.04,1.18-.13.25-.08.45-.22.62-.42.16-.19.25-.4.27-.61.05-.43.08-.77.08-1.01V2.7l-7.2,19.71h-1.58l-7.24-19.43v15.61c0,.8.07,1.33.2,1.61.14.28.35.5.64.65.29.15.81.23,1.55.23h.51v1.33h-7.76v-1.33h.44c.75,0,1.28-.08,1.6-.24.32-.16.55-.38.69-.67.14-.29.2-.86.2-1.71V4.08c0-.81-.06-1.34-.17-1.6-.12-.26-.31-.45-.58-.58-.27-.13-.75-.19-1.43-.19h-.76V.38Z"/>
  </g>
  <g>
    <path class="cls-1" d="M330.96,42.61h1.14l1.69,6.79-1.47.44c-.93-1.91-2.16-3.41-3.69-4.5-1.26-.92-2.66-1.37-4.2-1.37-.92,0-1.76.16-2.49.5-.74.33-1.29.76-1.66,1.28-.37.53-.55,1.06-.55,1.61,0,.49.14.97.43,1.43.29.46.72.87,1.3,1.22.58.35,1.53.72,2.85,1.11l4.12,1.22c.51.15,1.24.43,2.2.85.96.42,1.71.87,2.25,1.33.54.47.96,1.04,1.26,1.72.31.68.46,1.41.46,2.2,0,1.75-.77,3.28-2.3,4.59-1.53,1.31-3.51,1.97-5.95,1.97-1.25,0-2.37-.18-3.36-.54-.99-.37-2.06-1.01-3.21-1.94l-.73,2.1h-1.11l-1.47-7.91,1.47-.3c.54,1.46,1.25,2.71,2.14,3.73.89,1.02,1.87,1.79,2.95,2.31,1.08.52,2.18.78,3.29.78,1.52,0,2.84-.46,3.98-1.37.95-.77,1.42-1.67,1.42-2.72,0-.96-.34-1.74-1.03-2.35-.69-.61-1.94-1.18-3.73-1.71l-3.95-1.14c-2.21-.64-3.77-1.46-4.68-2.46-.91-1-1.36-2.15-1.36-3.44,0-1.01.29-1.94.88-2.8.59-.86,1.5-1.58,2.72-2.16,1.22-.58,2.56-.87,4.01-.87,1.22,0,2.39.21,3.51.63.79.29,1.52.72,2.18,1.26l.67-1.52Z"/>
    <path class="cls-1" d="M352.61,44.04h1.12v5.37h4.69v1.58h-4.69v9.52c0,.81.07,1.39.21,1.74.14.35.38.63.73.85.34.22.72.33,1.15.33,1,0,2.11-.45,3.32-1.34v1.53c-1.38.94-2.78,1.41-4.19,1.41-.8,0-1.53-.18-2.18-.54-.65-.36-1.09-.78-1.33-1.26-.24-.48-.36-1.33-.36-2.53v-9.71h-2.76v-1.33c.89-.2,1.6-.51,2.15-.93.54-.42.99-.97,1.32-1.64.34-.67.61-1.69.82-3.05Z"/>
    <path class="cls-1" d="M371.93,51.67v-1.31c.87-.1,1.61-.25,2.2-.44.59-.19,1.27-.48,2.03-.89h1.15v12.67c0,.44.06.77.19,1,.13.22.3.38.53.48.23.1.64.15,1.24.15h.74v1.33h-8.09v-1.33h.65c.71,0,1.18-.06,1.42-.19.24-.13.41-.31.51-.54.1-.23.15-.77.15-1.63v-9.3h-2.73ZM375.94,41.9c.51,0,.94.18,1.3.53.36.35.54.78.54,1.29s-.18.94-.54,1.3c-.36.36-.79.54-1.3.54s-.94-.18-1.3-.54c-.36-.36-.54-.79-.54-1.3s.18-.93.54-1.29c.36-.35.79-.53,1.3-.53Z"/>
    <path class="cls-1" d="M392.98,49.41h2.7v-2.37c0-1.63.54-2.97,1.62-4,1.08-1.04,2.49-1.56,4.23-1.56,1.16,0,2.06.24,2.71.73.65.48.97,1.01.97,1.58,0,.38-.13.7-.39.96-.26.26-.58.39-.97.39-.35,0-.65-.06-.9-.19-.25-.13-.64-.44-1.17-.95-.56-.53-1.09-.79-1.6-.79-.35,0-.66.11-.94.32-.28.22-.49.53-.65.95-.15.42-.23,1.06-.23,1.92v3.02h2.97v1.61h-2.97v10.25c0,.71.05,1.18.16,1.41.11.24.26.4.47.5.21.09.7.14,1.47.14h.65v1.33h-8.13v-1.33h.49c.83,0,1.36-.05,1.59-.16.23-.11.39-.28.49-.51.1-.24.14-.78.13-1.62v-10.01h-2.7v-1.61Z"/>
    <path class="cls-1" d="M418.91,44.04h1.12v5.37h4.69v1.58h-4.69v9.52c0,.81.07,1.39.21,1.74.14.35.38.63.73.85.34.22.72.33,1.14.33,1,0,2.11-.45,3.32-1.34v1.53c-1.38.94-2.78,1.41-4.19,1.41-.8,0-1.53-.18-2.18-.54-.65-.36-1.09-.78-1.33-1.26-.24-.48-.36-1.33-.36-2.53v-9.71h-2.76v-1.33c.89-.2,1.6-.51,2.15-.93.54-.42.98-.97,1.32-1.64.34-.67.61-1.69.82-3.05Z"/>
    <path class="cls-1" d="M437.5,49.41l5.99-.24v10.17c0,.9.12,1.61.37,2.13.25.53.63.94,1.14,1.22.51.29,1.11.44,1.79.44.84,0,1.8-.23,2.87-.68,1.07-.45,2.13-1.13,3.2-2.02v-7.36c0-.78-.06-1.29-.17-1.53-.12-.24-.32-.44-.62-.58-.29-.15-.76-.22-1.39-.22h-1.15v-1.33l5.98-.24v11.78c0,.76.06,1.28.19,1.57.13.29.31.49.56.61.25.12.74.18,1.49.18h.49v1.33l-5.24.27v-2.92c-1.44,1.15-2.7,1.94-3.78,2.38-1.07.44-2.16.66-3.27.66-.82,0-1.54-.11-2.14-.33-.61-.22-1.14-.55-1.6-1-.46-.44-.81-.97-1.05-1.6-.24-.62-.36-1.28-.36-1.99v-7.19c0-.64-.06-1.09-.18-1.35-.12-.26-.31-.46-.58-.61-.27-.15-.64-.23-1.1-.23h-1.45v-1.33Z"/>
    <path class="cls-1" d="M471.7,51.67v-1.31c.94-.11,1.64-.23,2.1-.38.46-.15,1.13-.46,2.01-.95h1.14v3c1.39-1.17,2.57-1.96,3.56-2.38.98-.41,1.98-.62,2.99-.62.86,0,1.63.15,2.29.43.66.29,1.2.68,1.62,1.18s.69,1.06.83,1.69c.08.39.13.98.13,1.77v6.95c0,.83.06,1.37.18,1.6.12.24.31.41.58.51.26.11.91.16,1.94.16v1.33h-8.12v-1.33h.44c.76,0,1.27-.07,1.55-.21.27-.14.47-.34.59-.6.12-.26.18-.8.18-1.61v-5.81c0-1.2-.1-2.03-.29-2.5-.2-.46-.53-.84-1-1.13-.47-.29-1.06-.44-1.78-.44-.85,0-1.77.22-2.73.66-.97.44-1.91,1.08-2.81,1.93v7.28c0,.82.06,1.37.18,1.64.12.27.32.48.59.62.19.11.69.16,1.52.16h.46v1.33h-8.15v-1.33h.4c.79,0,1.32-.06,1.61-.2.28-.13.48-.37.6-.7.06-.17.09-.75.09-1.74v-9.02h-2.69Z"/>
    <path class="cls-1" d="M516.58,50.65c.47-.56.95-.97,1.45-1.23.49-.26.94-.4,1.35-.4.38,0,.7.11.96.34.26.23.39.5.39.83s-.12.62-.35.85c-.23.23-.53.35-.88.35-.15,0-.35-.03-.6-.08-.29-.07-.54-.11-.74-.11-.26,0-.54.12-.82.36.65.79.98,1.72.98,2.78,0,1.45-.61,2.71-1.84,3.78-1.22,1.06-2.77,1.6-4.63,1.6-1.03,0-2.07-.22-3.12-.65-.69.5-1.09.8-1.19.92-.15.18-.22.37-.22.57,0,.31.16.56.47.76.4.26,1.19.49,2.37.67l4.57.68c1.01.16,2.03.42,3.05.79,1.02.37,1.76.85,2.22,1.44.46.59.69,1.3.69,2.12,0,1.39-.64,2.5-1.93,3.33-1.63,1.06-4.06,1.6-7.27,1.6-1.68,0-3.06-.18-4.11-.54-1.05-.36-1.87-.86-2.45-1.52-.42-.47-.63-.96-.63-1.47,0-.65.21-1.29.64-1.91.43-.62,1.41-1.51,2.96-2.65-1-.25-1.72-.55-2.15-.89-.55-.43-.82-.92-.82-1.47,0-.27.05-.53.15-.77.1-.24.26-.48.49-.71.23-.24.64-.57,1.24-.99.38-.27.65-.46.81-.59-.77-.55-1.35-1.16-1.74-1.84-.39-.68-.59-1.42-.59-2.23,0-1.33.52-2.5,1.55-3.5,1.25-1.22,2.94-1.83,5.08-1.83.95,0,1.78.12,2.49.36.71.24,1.43.66,2.18,1.27ZM509.26,64.21c-1.01.86-1.68,1.56-2.02,2.1-.33.54-.5,1.05-.5,1.55,0,.42.17.83.5,1.22.33.4.9.72,1.7.97.8.25,1.81.38,3.02.38,1.44,0,2.67-.16,3.69-.47,1.03-.31,1.77-.71,2.21-1.19.33-.38.49-.83.49-1.34,0-.44-.14-.82-.4-1.12-.27-.31-.78-.57-1.52-.8-.74-.23-1.44-.39-2.08-.5l-5.09-.81ZM511.78,50.5c-1.04,0-1.91.37-2.63,1.12-.72.75-1.08,1.67-1.08,2.77,0,.74.16,1.4.49,2,.33.59.79,1.06,1.38,1.4.59.34,1.21.51,1.87.51s1.28-.17,1.87-.52c.6-.35,1.06-.81,1.38-1.4.32-.59.48-1.25.48-1.99,0-1.15-.35-2.09-1.05-2.81-.7-.72-1.61-1.08-2.71-1.08Z"/>
  </g>
  <g>
    <path class="cls-1" d="M0,327.53h7.03v1.11h-.54c-.51,0-.88.07-1.11.21-.23.14-.4.34-.5.6s-.16.77-.16,1.52v11.83c0,.6.06,1.02.17,1.27.11.25.27.43.48.55.21.11.58.17,1.11.17h.54v1.11H0v-1.11h.58c.52,0,.88-.06,1.1-.18.21-.12.37-.29.47-.52.1-.22.14-.65.14-1.3v-12.11c0-.68-.05-1.14-.14-1.37-.1-.23-.25-.4-.47-.52-.22-.11-.58-.16-1.1-.16h-.58v-1.11Z"/>
    <path class="cls-1" d="M16.01,327.53h5.63l8.35,13.77v-10.48c0-.63-.06-1.08-.18-1.35-.12-.27-.31-.48-.55-.62-.25-.14-.61-.21-1.09-.21h-.47v-1.11h6.13v1.11h-.33c-.54,0-.91.05-1.1.13-.27.12-.47.35-.61.67-.14.33-.2.79-.2,1.38v15.07h-1.59l-10.07-16.54v13.11c0,.73.02,1.17.07,1.33.06.2.17.39.34.55.16.16.35.28.57.34.22.06.66.1,1.33.11v1.11h-6.21v-1.11h.33c.63,0,1.06-.06,1.28-.18.22-.12.4-.33.52-.63.12-.3.18-.8.18-1.51v-11.64c0-.73-.02-1.18-.05-1.34-.08-.3-.23-.52-.45-.65-.22-.13-.67-.2-1.34-.2h-.47v-1.11Z"/>
    <path class="cls-1" d="M55.16,327.53h.95l1.41,5.66-1.22.37c-.77-1.59-1.8-2.84-3.08-3.75-1.05-.77-2.22-1.14-3.5-1.14-.77,0-1.46.14-2.08.41-.61.28-1.07.64-1.38,1.07-.31.44-.46.88-.46,1.34,0,.41.12.81.36,1.2.24.39.6.73,1.08,1.02.48.29,1.27.6,2.37.93l3.43,1.02c.42.12,1.03.36,1.84.71.8.35,1.43.72,1.87,1.11.45.39.8.87,1.05,1.44.25.57.38,1.18.38,1.84,0,1.46-.64,2.73-1.92,3.83-1.28,1.1-2.93,1.64-4.96,1.64-1.04,0-1.98-.15-2.8-.45-.82-.3-1.72-.84-2.67-1.61l-.61,1.75h-.92l-1.22-6.59,1.22-.25c.45,1.22,1.04,2.26,1.78,3.11.74.85,1.56,1.5,2.46,1.93.9.43,1.81.65,2.74.65,1.26,0,2.37-.38,3.32-1.14.79-.64,1.18-1.39,1.18-2.26,0-.8-.29-1.45-.86-1.96-.58-.51-1.61-.98-3.11-1.42l-3.29-.95c-1.84-.53-3.14-1.22-3.9-2.05-.75-.83-1.13-1.79-1.13-2.87,0-.84.25-1.62.74-2.34.49-.72,1.25-1.31,2.26-1.8,1.02-.48,2.13-.72,3.34-.72,1.02,0,1.99.18,2.92.53.66.25,1.26.6,1.82,1.05l.55-1.26Z"/>
    <path class="cls-1" d="M67.7,326.91h.92l.13.62h11.27l.11-.62h.96l1.94,5.4-1.18.42c-.57-1.44-1.25-2.45-2.03-3.03-.78-.58-1.78-.87-3-.87-.51,0-.81.02-.91.06-.1.04-.16.11-.2.21-.04.09-.06.4-.06.92v12.74c0,.61.03,1.01.1,1.23.06.21.16.37.28.49.12.11.29.19.51.24.21.05.7.08,1.44.08v1.11h-7.08v-1.11c.78,0,1.26-.04,1.43-.08.31-.09.53-.26.66-.51.13-.25.2-.7.2-1.37v-13.01c0-.4-.02-.65-.06-.74-.04-.09-.11-.15-.22-.2-.11-.05-.34-.07-.68-.07-.96,0-1.72.12-2.3.37-.58.25-1.12.66-1.63,1.25-.51.59-.94,1.35-1.3,2.29l-1.18-.42,1.9-5.4Z"/>
    <path class="cls-1" d="M90.58,327.53h7.03v1.11h-.54c-.51,0-.88.07-1.11.21-.23.14-.39.34-.5.6s-.16.77-.16,1.52v11.83c0,.6.06,1.02.17,1.27.11.25.27.43.48.55.21.11.58.17,1.11.17h.54v1.11h-7.03v-1.11h.58c.52,0,.88-.06,1.1-.18.21-.12.37-.29.47-.52.1-.22.14-.65.14-1.3v-12.11c0-.68-.05-1.14-.14-1.37-.1-.23-.25-.4-.47-.52-.21-.11-.58-.16-1.1-.16h-.58v-1.11Z"/>
    <path class="cls-1" d="M107.06,326.91h.92l.13.62h11.27l.11-.62h.96l1.93,5.4-1.18.42c-.57-1.44-1.25-2.45-2.03-3.03-.78-.58-1.78-.87-3-.87-.51,0-.81.02-.91.06-.1.04-.16.11-.2.21-.04.09-.06.4-.06.92v12.74c0,.61.03,1.01.1,1.23.06.21.16.37.28.49.12.11.29.19.51.24.21.05.69.08,1.44.08v1.11h-7.08v-1.11c.78,0,1.26-.04,1.43-.08.31-.09.53-.26.66-.51.13-.25.2-.7.2-1.37v-13.01c0-.4-.02-.65-.06-.74-.04-.09-.11-.15-.22-.2-.11-.05-.34-.07-.68-.07-.96,0-1.72.12-2.3.37-.58.25-1.12.66-1.63,1.25-.51.59-.94,1.35-1.3,2.29l-1.18-.42,1.9-5.4Z"/>
    <path class="cls-1" d="M129.9,327.53h7.1v1.11h-.47c-.58,0-.99.06-1.24.17-.19.09-.34.24-.43.45-.1.21-.14.64-.14,1.27v8.27c0,1.48.18,2.57.53,3.28.35.71.95,1.31,1.78,1.79.83.48,1.74.73,2.73.73s1.95-.26,2.84-.78c.9-.52,1.52-1.13,1.88-1.84.36-.71.54-1.84.54-3.37v-7.96c0-.58-.06-1-.17-1.26-.11-.26-.29-.45-.52-.57-.23-.12-.6-.19-1.09-.19h-.51v-1.11h6.15v1.11h-.42c-.69,0-1.17.13-1.43.4-.26.27-.39.77-.39,1.5v8.46c0,1.54-.29,2.83-.87,3.86-.58,1.03-1.42,1.85-2.53,2.45-1.11.6-2.39.9-3.86.9-1.39,0-2.65-.31-3.8-.92-1.15-.61-1.99-1.38-2.53-2.3-.54-.92-.81-2.07-.81-3.45v-9c0-.58-.05-.99-.16-1.22-.11-.24-.26-.4-.46-.51-.2-.11-.55-.16-1.05-.16h-.66v-1.11Z"/>
    <path class="cls-1" d="M158.28,326.91h.92l.13.62h11.27l.11-.62h.96l1.94,5.4-1.19.42c-.57-1.44-1.25-2.45-2.03-3.03-.78-.58-1.78-.87-3-.87-.51,0-.81.02-.91.06-.1.04-.16.11-.2.21-.04.09-.06.4-.06.92v12.74c0,.61.03,1.01.1,1.23.07.21.16.37.28.49.12.11.29.19.51.24.22.05.69.08,1.44.08v1.11h-7.08v-1.11c.78,0,1.26-.04,1.44-.08.31-.09.53-.26.66-.51.13-.25.2-.7.2-1.37v-13.01c0-.4-.02-.65-.06-.74-.04-.09-.11-.15-.22-.2-.11-.05-.34-.07-.68-.07-.96,0-1.72.12-2.3.37-.57.25-1.12.66-1.63,1.25-.51.59-.94,1.35-1.3,2.29l-1.18-.42,1.9-5.4Z"/>
    <path class="cls-1" d="M196.89,327.53h14.04l1.7,4.82-1.15.43c-.48-1.12-.96-1.93-1.42-2.42-.47-.49-1.01-.84-1.62-1.05s-1.58-.32-2.9-.32h-3.96v7.06h1.8c.95,0,1.63-.09,2.04-.27.41-.19.73-.48.95-.88.22-.4.33-.97.33-1.7v-.49h1.29v8.06h-1.29v-.71c0-.69-.11-1.23-.32-1.62-.21-.39-.5-.66-.86-.84-.36-.17-1.01-.26-1.94-.26h-2v5.71c0,.53.05.9.16,1.1.11.21.27.37.49.47.22.11.6.16,1.15.16h.49v1.11h-6.99v-1.11h.45c.56,0,.95-.05,1.17-.16.22-.11.37-.27.47-.49.1-.22.15-.63.15-1.22v-12.48c0-.55-.05-.94-.14-1.16-.1-.22-.24-.39-.44-.49-.2-.1-.54-.15-1.03-.15h-.62v-1.11Z"/>
    <path class="cls-1" d="M220.47,327.53h7.1v1.11h-.47c-.58,0-.99.06-1.24.17-.19.09-.34.24-.43.45-.1.21-.15.64-.15,1.27v8.27c0,1.48.18,2.57.53,3.28.36.71.95,1.31,1.78,1.79.83.48,1.74.73,2.73.73s1.95-.26,2.84-.78c.9-.52,1.52-1.13,1.88-1.84.36-.71.54-1.84.54-3.37v-7.96c0-.58-.06-1-.17-1.26-.12-.26-.29-.45-.52-.57-.23-.12-.59-.19-1.09-.19h-.51v-1.11h6.15v1.11h-.42c-.69,0-1.17.13-1.43.4-.26.27-.39.77-.39,1.5v8.46c0,1.54-.29,2.83-.87,3.86s-1.42,1.85-2.53,2.45c-1.11.6-2.39.9-3.86.9-1.39,0-2.66-.31-3.8-.92-1.15-.61-2-1.38-2.53-2.3-.54-.92-.81-2.07-.81-3.45v-9c0-.58-.05-.99-.16-1.22-.11-.24-.26-.4-.46-.51-.2-.11-.55-.16-1.05-.16h-.66v-1.11ZM227.78,323.4c.44,0,.81.16,1.13.47.32.32.47.69.47,1.14s-.16.81-.47,1.13-.69.47-1.13.47-.82-.16-1.13-.47c-.32-.32-.47-.69-.47-1.13s.16-.83.47-1.14c.31-.32.69-.47,1.14-.47ZM232.17,323.4c.44,0,.82.16,1.13.47.32.32.47.69.47,1.14s-.16.81-.47,1.13c-.32.32-.69.47-1.13.47s-.83-.16-1.14-.47c-.31-.32-.47-.69-.47-1.13s.15-.83.47-1.14c.31-.32.69-.47,1.14-.47Z"/>
    <path class="cls-1" d="M248.51,327.53h9.48c1.8,0,3.16.19,4.08.56.92.38,1.63.91,2.13,1.62.49.71.74,1.52.74,2.45s-.24,1.8-.72,2.55c-.48.74-1.18,1.32-2.09,1.75-.91.43-2.12.65-3.62.67l4.86,5.92c.39.49.65.8.78.91.31.27.63.48.97.62.34.14.72.21,1.14.21h.33v1.11h-4.18l-6.75-8.76h-2.36v5.66c0,.63.02,1.03.07,1.19.1.3.25.51.47.63.22.12.63.18,1.26.18h.47v1.11h-7.03v-1.11h.63c.47,0,.79-.03.95-.09.16-.06.31-.17.44-.32.13-.15.22-.35.27-.59.02-.09.03-.54.04-1.33v-12.02c0-.53-.05-.92-.16-1.15-.11-.23-.25-.4-.44-.5-.19-.1-.52-.15-.98-.15h-.75v-1.11ZM253.28,328.97v6.91h3.78c1.28,0,2.18-.08,2.7-.24.74-.21,1.32-.6,1.75-1.16s.64-1.28.64-2.14c0-.74-.15-1.36-.46-1.86-.31-.51-.73-.88-1.26-1.13-.53-.25-1.33-.38-2.38-.38h-4.77Z"/>
    <path class="cls-1" d="M290.08,327.53h7.1v1.11h-.5c-.58,0-.99.07-1.23.21-.24.14-.4.36-.5.66-.08.22-.12.58-.12,1.08v6.97l6.9-7.32c.36-.39.57-.65.64-.76.06-.12.1-.24.1-.36,0-.16-.08-.28-.23-.36-.15-.08-.49-.12-1-.12h-.42v-1.11h6.57v1.11c-.52,0-.99.05-1.41.17-.42.12-.75.28-1,.47-.54.4-.92.72-1.15.95l-4.92,5.03,5.62,7.46c.51.67.91,1.14,1.21,1.39.3.25.61.42.92.53.32.1.81.15,1.47.15v1.11h-7.8v-1.11h.46c.52,0,.82-.01.92-.04.15-.04.27-.11.36-.21.09-.11.13-.21.13-.33,0-.23-.3-.75-.91-1.56l-4.12-5.62-2.35,2.4v3.51c0,.61.06,1.02.18,1.24.12.22.31.38.57.49.2.08.73.12,1.59.12v1.11h-7.1v-1.11h.55c.55,0,.93-.05,1.13-.16.2-.11.36-.29.47-.55.11-.25.16-.71.16-1.36v-12.12c0-.64-.05-1.08-.16-1.31-.11-.23-.26-.4-.46-.49-.2-.09-.63-.14-1.29-.14h-.41v-1.11Z"/>
    <path class="cls-1" d="M315.9,327.53h7.1v1.11h-.47c-.58,0-.99.06-1.24.17-.19.09-.34.24-.43.45-.1.21-.15.64-.15,1.27v8.27c0,1.48.18,2.57.53,3.28.36.71.95,1.31,1.78,1.79.83.48,1.74.73,2.73.73s1.95-.26,2.84-.78c.9-.52,1.52-1.13,1.88-1.84.36-.71.54-1.84.54-3.37v-7.96c0-.58-.06-1-.17-1.26-.12-.26-.29-.45-.52-.57-.23-.12-.59-.19-1.09-.19h-.51v-1.11h6.15v1.11h-.42c-.69,0-1.17.13-1.43.4-.26.27-.39.77-.39,1.5v8.46c0,1.54-.29,2.83-.87,3.86s-1.42,1.85-2.53,2.45c-1.11.6-2.39.9-3.86.9-1.39,0-2.66-.31-3.8-.92-1.15-.61-2-1.38-2.53-2.3-.54-.92-.81-2.07-.81-3.45v-9c0-.58-.05-.99-.16-1.22-.11-.24-.26-.4-.46-.51-.2-.11-.55-.16-1.05-.16h-.66v-1.11Z"/>
    <path class="cls-1" d="M343.88,327.53h7.12v1.11h-.66c-.51,0-.87.05-1.08.15-.21.09-.36.24-.46.42s-.14.52-.14.99v12.81c0,.59.02.94.07,1.05.05.16.17.27.34.34.12.05.48.08,1.07.08h.99c1.13,0,2.11-.16,2.95-.49.83-.33,1.55-.81,2.16-1.43.61-.63,1.19-1.57,1.75-2.81l1.17.4-2.05,5.75h-13.22v-1.11h.58c.56,0,.94-.05,1.13-.14.19-.09.34-.26.45-.48s.16-.61.16-1.15v-12.49c0-.64-.05-1.06-.15-1.28-.1-.22-.24-.37-.42-.46-.18-.09-.57-.14-1.17-.14h-.58v-1.11Z"/>
    <path class="cls-1" d="M367.2,326.91h.92l.13.62h11.27l.11-.62h.96l1.94,5.4-1.19.42c-.57-1.44-1.25-2.45-2.03-3.03-.78-.58-1.78-.87-3-.87-.51,0-.81.02-.91.06-.1.04-.16.11-.2.21-.04.09-.06.4-.06.92v12.74c0,.61.03,1.01.1,1.23.07.21.16.37.28.49.12.11.29.19.51.24.22.05.7.08,1.44.08v1.11h-7.08v-1.11c.78,0,1.26-.04,1.44-.08.31-.09.53-.26.66-.51.13-.25.2-.7.2-1.37v-13.01c0-.4-.02-.65-.06-.74-.04-.09-.11-.15-.22-.2-.11-.05-.34-.07-.68-.07-.96,0-1.72.12-2.3.37-.57.25-1.12.66-1.63,1.25-.51.59-.94,1.35-1.3,2.29l-1.18-.42,1.9-5.4Z"/>
    <path class="cls-1" d="M390.04,327.53h7.09v1.11h-.47c-.58,0-.99.06-1.24.17-.19.09-.34.24-.44.45-.1.21-.14.64-.14,1.27v8.27c0,1.48.18,2.57.53,3.28.36.71.95,1.31,1.78,1.79.83.48,1.74.73,2.73.73s1.95-.26,2.84-.78c.9-.52,1.52-1.13,1.88-1.84.36-.71.54-1.84.54-3.37v-7.96c0-.58-.06-1-.17-1.26-.11-.26-.28-.45-.52-.57-.23-.12-.59-.19-1.08-.19h-.51v-1.11h6.15v1.11h-.42c-.7,0-1.17.13-1.43.4-.26.27-.39.77-.39,1.5v8.46c0,1.54-.29,2.83-.87,3.86-.58,1.03-1.42,1.85-2.53,2.45-1.11.6-2.39.9-3.86.9-1.39,0-2.66-.31-3.81-.92-1.15-.61-1.99-1.38-2.53-2.3-.54-.92-.81-2.07-.81-3.45v-9c0-.58-.05-.99-.16-1.22-.11-.24-.26-.4-.46-.51-.2-.11-.55-.16-1.05-.16h-.66v-1.11Z"/>
    <path class="cls-1" d="M418.08,327.53h9.48c1.8,0,3.16.19,4.08.56.92.38,1.63.91,2.13,1.62.49.71.74,1.52.74,2.45s-.24,1.8-.72,2.55c-.48.74-1.18,1.32-2.09,1.75-.91.43-2.12.65-3.62.67l4.86,5.92c.4.49.65.8.78.91.31.27.63.48.97.62s.72.21,1.14.21h.33v1.11h-4.18l-6.75-8.76h-2.36v5.66c0,.63.02,1.03.07,1.19.09.3.25.51.47.63.21.12.63.18,1.26.18h.47v1.11h-7.03v-1.11h.63c.47,0,.79-.03.95-.09.16-.06.31-.17.44-.32.13-.15.22-.35.27-.59.02-.09.03-.54.04-1.33v-12.02c0-.53-.05-.92-.16-1.15-.11-.23-.25-.4-.44-.5-.19-.1-.52-.15-.98-.15h-.75v-1.11ZM422.84,328.97v6.91h3.78c1.28,0,2.18-.08,2.7-.24.74-.21,1.32-.6,1.74-1.16.43-.56.64-1.28.64-2.14,0-.74-.15-1.36-.46-1.86-.31-.51-.73-.88-1.26-1.13-.53-.25-1.32-.38-2.38-.38h-4.77Z"/>
    <path class="cls-1" d="M444.22,327.53h14.93l1.72,4.83-1.16.44c-.29-.79-.6-1.41-.95-1.86-.34-.45-.75-.84-1.23-1.15-.48-.32-.96-.53-1.45-.63-.49-.11-1.37-.16-2.64-.16h-4.45v6.73h2.22c.82,0,1.44-.14,1.85-.42.42-.27.71-.62.86-1.03.12-.31.19-.84.19-1.6v-.31h1.29v8.06h-1.29v-.69c0-.61-.05-1.06-.14-1.33-.09-.27-.26-.53-.51-.77-.25-.24-.51-.4-.8-.49-.28-.09-.77-.13-1.46-.13h-2.22v5.97c0,.62.03,1,.09,1.14.06.13.15.23.28.29.13.06.49.09,1.08.09h2.76c1.54,0,2.74-.18,3.61-.55.87-.37,1.63-.93,2.29-1.7.52-.59,1.01-1.44,1.49-2.52l1.2.42-2.05,5.75h-15.49v-1.11h.53c.61,0,.99-.04,1.14-.12.23-.11.4-.3.53-.55.09-.17.13-.55.13-1.13v-12.65c0-.58-.06-.96-.17-1.15-.12-.2-.31-.34-.59-.45-.15-.06-.67-.09-1.57-.09v-1.11Z"/>
    <path class="cls-1" d="M470.32,327.53h7.12v1.11h-.66c-.51,0-.87.05-1.08.15-.21.09-.36.24-.46.42-.09.19-.14.52-.14.99v12.81c0,.59.02.94.07,1.05.05.16.16.27.34.34.12.05.48.08,1.07.08h.99c1.13,0,2.12-.16,2.95-.49.84-.33,1.55-.81,2.16-1.43.61-.63,1.19-1.57,1.75-2.81l1.17.4-2.05,5.75h-13.22v-1.11h.58c.56,0,.94-.05,1.13-.14.19-.09.34-.26.45-.48s.16-.61.16-1.15v-12.49c0-.64-.05-1.06-.15-1.28-.09-.22-.24-.37-.42-.46-.18-.09-.57-.14-1.17-.14h-.58v-1.11Z"/>
    <path class="cls-1" d="M493.24,327.53h7.12v1.11h-.66c-.51,0-.87.05-1.08.15-.21.09-.36.24-.46.42-.09.19-.14.52-.14.99v12.81c0,.59.02.94.07,1.05.05.16.16.27.34.34.12.05.48.08,1.07.08h.99c1.13,0,2.12-.16,2.95-.49.84-.33,1.56-.81,2.16-1.43.61-.63,1.19-1.57,1.75-2.81l1.17.4-2.05,5.75h-13.22v-1.11h.58c.56,0,.94-.05,1.13-.14.19-.09.34-.26.45-.48s.16-.61.16-1.15v-12.49c0-.64-.05-1.06-.15-1.28-.09-.22-.24-.37-.42-.46-.18-.09-.57-.14-1.17-.14h-.58v-1.11Z"/>
    <path class="cls-1" d="M516.21,327.53h14.93l1.72,4.83-1.16.44c-.29-.79-.6-1.41-.95-1.86-.34-.45-.75-.84-1.23-1.15-.48-.32-.96-.53-1.45-.63-.49-.11-1.37-.16-2.64-.16h-4.45v6.73h2.22c.82,0,1.44-.14,1.85-.42.42-.27.71-.62.86-1.03.12-.31.19-.84.19-1.6v-.31h1.29v8.06h-1.29v-.69c0-.61-.05-1.06-.14-1.33-.09-.27-.26-.53-.51-.77-.25-.24-.51-.4-.8-.49-.28-.09-.77-.13-1.46-.13h-2.22v5.97c0,.62.03,1,.09,1.14.06.13.15.23.28.29.13.06.49.09,1.08.09h2.76c1.54,0,2.74-.18,3.61-.55.87-.37,1.63-.93,2.29-1.7.52-.59,1.01-1.44,1.49-2.52l1.2.42-2.05,5.75h-15.49v-1.11h.53c.61,0,.99-.04,1.14-.12.23-.11.4-.3.53-.55.09-.17.13-.55.13-1.13v-12.65c0-.58-.06-.96-.17-1.15-.12-.2-.31-.34-.59-.45-.15-.06-.67-.09-1.57-.09v-1.11Z"/>
    <path class="cls-1" d="M557.68,327.53h7.12v1.11h-.66c-.51,0-.87.05-1.08.15-.21.09-.36.24-.46.42-.09.19-.14.52-.14.99v12.81c0,.59.02.94.07,1.05.05.16.16.27.34.34.12.05.48.08,1.07.08h.99c1.13,0,2.12-.16,2.95-.49.84-.33,1.55-.81,2.16-1.43.61-.63,1.19-1.57,1.75-2.81l1.17.4-2.05,5.75h-13.22v-1.11h.58c.56,0,.94-.05,1.13-.14.19-.09.34-.26.45-.48s.16-.61.16-1.15v-12.49c0-.64-.05-1.06-.15-1.28-.09-.22-.24-.37-.42-.46-.18-.09-.57-.14-1.17-.14h-.58v-1.11Z"/>
    <path class="cls-1" d="M580.65,327.53h14.93l1.72,4.83-1.16.44c-.29-.79-.6-1.41-.95-1.86-.34-.45-.75-.84-1.23-1.15-.48-.32-.96-.53-1.45-.63-.49-.11-1.37-.16-2.64-.16h-4.45v6.73h2.22c.82,0,1.44-.14,1.85-.42.42-.27.71-.62.86-1.03.12-.31.19-.84.19-1.6v-.31h1.29v8.06h-1.29v-.69c0-.61-.05-1.06-.14-1.33-.09-.27-.26-.53-.51-.77-.25-.24-.51-.4-.8-.49-.28-.09-.77-.13-1.46-.13h-2.22v5.97c0,.62.03,1,.09,1.14.06.13.15.23.28.29.13.06.49.09,1.08.09h2.76c1.54,0,2.74-.18,3.61-.55.87-.37,1.63-.93,2.29-1.7.52-.59,1.01-1.44,1.49-2.52l1.2.42-2.05,5.75h-15.49v-1.11h.53c.61,0,.99-.04,1.14-.12.23-.11.4-.3.53-.55.09-.17.13-.55.13-1.13v-12.65c0-.58-.06-.96-.17-1.15-.12-.2-.31-.34-.59-.45-.15-.06-.67-.09-1.57-.09v-1.11Z"/>
    <path class="cls-1" d="M606.58,327.53h7.03v1.11h-.54c-.51,0-.88.07-1.11.21-.23.14-.4.34-.5.6s-.16.77-.16,1.52v11.83c0,.6.06,1.02.17,1.27.11.25.27.43.48.55.21.11.58.17,1.11.17h.54v1.11h-7.03v-1.11h.58c.52,0,.88-.06,1.1-.18.21-.12.37-.29.47-.52.1-.22.14-.65.14-1.3v-12.11c0-.68-.05-1.14-.14-1.37-.09-.23-.25-.4-.47-.52-.21-.11-.58-.16-1.1-.16h-.58v-1.11Z"/>
    <path class="cls-1" d="M623.06,326.91h.92l.13.62h11.27l.11-.62h.96l1.93,5.4-1.19.42c-.57-1.44-1.25-2.45-2.03-3.03-.78-.58-1.78-.87-3-.87-.51,0-.81.02-.91.06-.09.04-.16.11-.2.21-.04.09-.06.4-.06.92v12.74c0,.61.04,1.01.1,1.23.07.21.16.37.28.49.12.11.29.19.51.24.22.05.69.08,1.44.08v1.11h-7.08v-1.11c.78,0,1.26-.04,1.44-.08.31-.09.53-.26.66-.51.13-.25.2-.7.2-1.37v-13.01c0-.4-.02-.65-.06-.74s-.11-.15-.22-.2c-.11-.05-.33-.07-.68-.07-.95,0-1.72.12-2.3.37-.58.25-1.12.66-1.63,1.25-.51.59-.94,1.35-1.31,2.29l-1.18-.42,1.9-5.4Z"/>
    <path class="cls-1" d="M646.3,327.53h14.05l1.7,4.82-1.14.43c-.48-1.12-.95-1.93-1.42-2.42-.46-.49-1-.84-1.62-1.05s-1.58-.32-2.9-.32h-3.96v7.06h1.8c.95,0,1.63-.09,2.04-.27.41-.19.73-.48.95-.88.22-.4.33-.97.33-1.7v-.49h1.29v8.06h-1.29v-.71c0-.69-.11-1.23-.32-1.62-.21-.39-.5-.66-.86-.84-.36-.17-1.01-.26-1.94-.26h-2v5.71c0,.53.06.9.16,1.1.11.21.27.37.49.47.21.11.6.16,1.15.16h.49v1.11h-6.99v-1.11h.45c.56,0,.95-.05,1.17-.16.21-.11.37-.27.47-.49.1-.22.15-.63.15-1.22v-12.48c0-.55-.05-.94-.14-1.16-.1-.22-.25-.39-.44-.49-.2-.1-.54-.15-1.03-.15h-.62v-1.11Z"/>
    <path class="cls-1" d="M679.9,327.22c1.68,0,3.19.4,4.54,1.21,1.47.87,2.59,2,3.38,3.38s1.18,2.99,1.18,4.82c0,2.83-.88,5.13-2.64,6.91-1.75,1.78-3.99,2.67-6.72,2.67-3.04,0-5.44-1.07-7.22-3.21-1.45-1.74-2.17-3.83-2.17-6.27,0-1.81.41-3.43,1.22-4.86.81-1.44,1.98-2.57,3.48-3.4,1.5-.83,3.15-1.25,4.94-1.25ZM679.9,328.64c-1.37,0-2.55.31-3.53.94-.99.63-1.78,1.55-2.37,2.77-.59,1.22-.89,2.72-.89,4.51s.29,3.16.88,4.35c.58,1.19,1.37,2.1,2.35,2.73.99.63,2.1.95,3.32.95s2.31-.31,3.25-.93c.94-.62,1.72-1.59,2.33-2.92.61-1.33.92-2.8.92-4.43s-.31-3.16-.92-4.53c-.53-1.18-1.23-2.05-2.1-2.61-.87-.56-1.95-.84-3.24-.84Z"/>
    <path class="cls-1" d="M698.47,327.53h9.48c1.8,0,3.16.19,4.08.56.92.38,1.63.91,2.13,1.62.49.71.74,1.52.74,2.45s-.24,1.8-.73,2.55c-.48.74-1.18,1.32-2.09,1.75-.91.43-2.12.65-3.62.67l4.86,5.92c.39.49.65.8.78.91.31.27.63.48.97.62.34.14.72.21,1.14.21h.33v1.11h-4.18l-6.75-8.76h-2.36v5.66c0,.63.02,1.03.07,1.19.1.3.25.51.47.63.22.12.64.18,1.26.18h.47v1.11h-7.03v-1.11h.63c.47,0,.79-.03.95-.09.16-.06.31-.17.44-.32.13-.15.21-.35.27-.59.02-.09.03-.54.04-1.33v-12.02c0-.53-.05-.92-.16-1.15-.11-.23-.25-.4-.44-.5-.19-.1-.52-.15-.98-.15h-.75v-1.11ZM703.23,328.97v6.91h3.78c1.28,0,2.18-.08,2.7-.24.74-.21,1.32-.6,1.75-1.16.42-.56.64-1.28.64-2.14,0-.74-.15-1.36-.46-1.86-.31-.51-.73-.88-1.26-1.13-.53-.25-1.33-.38-2.38-.38h-4.77Z"/>
    <path class="cls-1" d="M724.59,327.53h5.8l5.42,14.55,5.3-14.55h5.6v1.11h-.47c-.57,0-.95.05-1.15.15-.2.09-.35.27-.47.51-.12.24-.17.64-.17,1.2v12.11c0,.76.05,1.26.14,1.49.09.23.25.4.46.52.21.12.61.18,1.19.18h.47v1.11h-7.02v-1.11h.5c.45,0,.78-.04.98-.11.21-.07.38-.19.52-.35.13-.16.21-.33.23-.51.05-.36.07-.64.07-.84v-13.52l-6,16.43h-1.32l-6.04-16.19v13.01c0,.66.06,1.11.17,1.34.12.24.29.41.53.54.24.13.67.19,1.3.19h.42v1.11h-6.46v-1.11h.37c.62,0,1.07-.06,1.34-.2.27-.13.46-.32.57-.56.11-.24.17-.72.17-1.43v-11.99c0-.67-.05-1.12-.15-1.33-.09-.22-.26-.38-.48-.48-.22-.11-.62-.16-1.19-.16h-.63v-1.11Z"/>
    <path class="cls-1" d="M756.15,327.53h14.93l1.72,4.83-1.16.44c-.29-.79-.6-1.41-.95-1.86-.34-.45-.75-.84-1.23-1.15-.48-.32-.96-.53-1.45-.63-.49-.11-1.37-.16-2.64-.16h-4.45v6.73h2.22c.82,0,1.44-.14,1.85-.42.42-.27.71-.62.86-1.03.12-.31.19-.84.19-1.6v-.31h1.29v8.06h-1.29v-.69c0-.61-.05-1.06-.14-1.33-.09-.27-.26-.53-.51-.77-.25-.24-.51-.4-.8-.49-.28-.09-.77-.13-1.46-.13h-2.22v5.97c0,.62.03,1,.09,1.14.06.13.15.23.28.29.13.06.49.09,1.08.09h2.76c1.54,0,2.74-.18,3.61-.55.87-.37,1.63-.93,2.29-1.7.52-.59,1.01-1.44,1.49-2.52l1.2.42-2.05,5.75h-15.49v-1.11h.53c.61,0,.99-.04,1.14-.12.23-.11.4-.3.53-.55.09-.17.13-.55.13-1.13v-12.65c0-.58-.06-.96-.17-1.15-.12-.2-.31-.34-.59-.45-.15-.06-.67-.09-1.57-.09v-1.11Z"/>
    <path class="cls-1" d="M782.19,327.53h5.63l8.35,13.77v-10.48c0-.63-.06-1.08-.18-1.35-.12-.27-.31-.48-.55-.62-.25-.14-.61-.21-1.09-.21h-.47v-1.11h6.14v1.11h-.33c-.54,0-.91.05-1.1.13-.27.12-.47.35-.61.67-.14.33-.2.79-.2,1.38v15.07h-1.59l-10.07-16.54v13.11c0,.73.02,1.17.06,1.33.06.2.18.39.34.55.16.16.35.28.57.34.22.06.66.1,1.33.11v1.11h-6.21v-1.11h.33c.63,0,1.06-.06,1.28-.18.22-.12.4-.33.52-.63.12-.3.19-.8.19-1.51v-11.64c0-.73-.02-1.18-.05-1.34-.08-.3-.23-.52-.45-.65-.22-.13-.67-.2-1.34-.2h-.47v-1.11Z"/>
  </g>
</svg>